<?xml version="1.0" encoding="UTF-8"?>
<svg id="_圖層_2" data-name="圖層 2" xmlns="http://www.w3.org/2000/svg" viewBox="0 0 167.3 180.16">
  <defs>
    <style>
      .cls-1 {
        fill: #9ed6e1;
      }

      .cls-1, .cls-2, .cls-3 {
        stroke-width: 0px;
      }

      .cls-2 {
        fill: #fff;
      }

      .cls-3 {
        fill: #69c5d6;
      }
    </style>
  </defs>
  <g id="_圖層_1-2" data-name="圖層 1">
    <g>
      <path class="cls-3" d="m159.85,99.78h-.33v-.18h-.18v-.18h-.18v-.18h-.18v-.18h-.18v-.18h-.18v-.18h-.18v-.18h-.18v-.18h-.18v-.18h-.18v-.18h-.18v-.18h-.18v-.18h-.18v-.18h-.18v-.18h-.18v-.18h-.18v-.18h-.18v-.18h-.18v-.18h-.18v-.18h-.18v-.18h-.18v-.18h-.18v-.18h-.18v-.18h-.18v-.18h-.18v-.18h-.18v-.18h-.18v-.18h-.18v-.18h-.18v-.18h-.18v-.18h-.18v-.18h-.18v-.18h-.18v-.18h-.18v-.18h-.18v-.18h-.18v-.18h-.18v-.18h-.13v-18.79h6.06l8.14-17.41h-.26l.08-.18h-.26l.08-.18h-.26l.08-.18h-.26l.08-.18h-.26l.08-.18h-.26l.08-.18h-.26l.08-.18h-.26l.08-.18h-.26l.08-.18h-.26l.08-.18h-.26l.08-.18h-.26l.08-.18h-.26l.08-.18h-.26l.08-.18h-.26l.08-.18h-.26l.08-.18h-.26l.08-.18h-.26l.08-.18h-.26l.08-.18h-.26l.08-.18h-.26l.08-.18h-.26l.08-.18h-.26l.08-.18h-.26l.08-.18h-.26l.08-.18h-.26l.08-.18h-.26l.08-.18h-.26l.08-.18h-.26l.08-.18h-.26l.08-.18h-.26l.08-.18h-.26l.08-.18h-.26l.08-.18h-.26l.08-.18h-.26l.08-.18h-.26l.08-.18h-.26l.08-.18h-.26l.08-.18h-.26l.08-.18h-.24l6.9-12.99h-.27l.09-.18h-.27l.09-.18h-.27l.09-.18h-.27l.09-.18h-.27l.09-.18h-.27l.09-.18h-.27l.09-.18h-.27l.09-.18h-.27l.09-.18h-.27l.09-.18h-.27l.09-.18h-.27l.09-.18h-.27l.09-.18h-.27l.09-.18h-.27l.09-.18h-.27l.09-.18h-.27l.09-.18h-.27l.09-.18h-.27l.09-.18h-.27l.09-.18h-.27l.09-.18h-.27l.09-.18h-.27l.09-.18h-.27l.09-.18h-.27l.09-.18h-.27l.09-.18h-.27l.09-.18h-.27l.09-.18h-.27l.09-.18h-.27l.09-.18h-.27l.09-.18h-.27l.09-.18h-.27l.09-.18h-.27l.09-.18h-.27l.09-.18h-.27l.09-.18h-.27l.09-.18h-.27l.09-.18h-.27l.09-.18h-.27l.09-.18h-.27l.09-.18h-.27l.09-.18h-.27l.09-.18h-.27l.09-.18h-.27l.09-.18h-.27l.09-.18h-.27l.09-.18h-.27l.09-.18h-.27l.09-.18h-.27l.09-.18h-.27l.09-.18h-22.14l.04-.07h-.27l.09-.18h-.27l.09-.18h-.27l.09-.18h-.27l.09-.18h-.27l.09-.18h-.27l.09-.18h-.27l.09-.18h-.27l.09-.18h-.27l.09-.18h-.27l.09-.18h-.27l.09-.18h-.27l.09-.18h-.27l.09-.18h-.27l.09-.18h-.27l.09-.18h-.27l.09-.18h-.27l.09-.18h-.27l.09-.18h-.27l.09-.18h-.27l.09-.18h-.27l.09-.18h-19.94l-2.21,4.2h-24.12v-.32h-.18v-.18h-.18v-.18h-.18v-.18h-.17l4.65-8.56h-.27l.1-.18h-.27l.1-.18h-.27l.1-.18h-.27l.1-.18h-.27l.1-.18h-.27l.1-.18h-.27l.1-.18h-.27l.1-.18h-.27l.1-.18h-.27l.1-.18h-.27l.1-.18h-.27l.1-.18h-.27l.1-.18h-.27l.1-.18h-.27l.1-.18h-.27l.1-.18h-.27l.1-.18h-.27l.1-.18h-.27l.1-.18h-.27l.1-.18h-.27l.1-.18h-.27l.1-.18h-.27l.1-.18h-.27l.1-.18h-.27l.1-.18h-.27l.1-.18h-.27l.1-.18h-.27l.1-.18h-.27l.1-.18h-.27l.1-.18h-.27l.1-.18h-.27l.1-.18h-.27l.1-.18h-.27l.1-.18h-.27l.1-.18h-.27l.1-.18h-.27l.1-.18h-.27l.1-.18h-.27l.1-.18h-.27l.1-.18h-.27l.1-.18h-.27l.1-.18h-.27l.1-.18h-.27l.1-.18h-.27l.1-.18h-.27l.1-.18h-.27l.1-.18h-.27l.1-.18h-.27l.1-.18h-.27l.1-.18h-.27l.1-.18h-29.39l.8-1.51h-.27l.09-.18h-.27l.09-.18h-.27l.09-.18h-.27l.09-.18h-.27l.09-.18h-.27l.09-.18h-.27l.09-.18h-.27l.09-.18h-.27l.09-.18h-.27l.09-.18h-.27l.09-.18h-.27l.09-.18h-.27l.09-.18h-.27l.09-.18h-.27l.09-.18h-.27l.09-.18h-.27l.09-.18h-.27l.09-.18h-.27l.09-.18h-.27l.09-.18h-.27l.09-.18h-.27l.09-.18h-.27l.09-.18h-.27l.09-.18h-.27l.09-.18h-.27l.09-.18h-.27l.09-.18h-.27l.09-.18h-.27l.09-.18h-.27l.09-.18h-.27l.09-.18h-.27l.09-.18h-.27l.09-.18h-.27l.09-.18h-.27l.09-.18h-.27l.09-.18h-.27l.09-.18h-.27l.09-.18h-.27l.09-.18h-.27l.09-.18h-.27l.09-.18h-.27l.09-.18h-.27l.09-.18h-.27l.09-.18h-.27l.09-.18h-.27l.09-.18h-.27l.09-.18h-.27l.09-.18h-.27l.09-.18h-.27l.09-.18h-.27l.09-.18h-20.76l-9.47,17.68h-7.62l8.17,15.15v16.55h.19v.18h.18v.18h.18v.18h.18v.18h.18v.18h.18v.18h.18v.18h.18v.18h.18v.18h.18v.18h.18v.18h.18v.18h.18v.18h.18v.18h.18v.18h.18v.18h.18v.18h.18v.18h.18v.18h.18v.18h.18v.18h.18v.18h.18v.18h.18v.18h.18v.18h.18v.18h.18v.18h.18v.18h.18v.18h.18v.18h.18v.18h.18v.18h.18v.18h.18v.18h.18v.03l-4.57,8.66H3.15l9.54,18.12h.08l.09.18h.08l.09.18h.08l.09.18h.08l.09.18h.08l.09.18h.08l.09.18h.08l.09.18h.08l.09.18h.08l.09.18h.08l.09.18h.08l.09.18h.08l.09.18h.08l.09.18h.08l.09.18h.08l.09.18h.08l.09.18h.08l.09.18h.08l.09.18h.08l.09.18h.08l.09.18h.08l.02.04-6.01,12.67h.26l-.08.18h.26l-.08.18h.26l-.08.18h.26l-.08.18h.26l-.08.18h.26l-.08.18h.26l-.08.18h.26l-.08.18h.26l-.08.18h.26l-.08.18h.26l-.08.18h.26l-.08.18h.26l-.08.18h.26l-.08.18h.26l-.08.18h.26l-.08.18h.26l-.08.18h.26l-.08.18h.26l-.08.18h.26l-.08.18h.26l-.08.18h.26l-.08.18h.26l-.08.18h.26l-.08.18h.26l-.08.18h.26l-.08.18h.26,0s-15.1,0-15.1,0l9.38,17.77h.08l.09.18h.08l.09.18h.08l.09.18h.08l.09.18h.08l.09.18h.08l.09.18h.08l.09.18h.08l.09.18h.08l.09.18h.08l.09.18h.08l.09.18h.08l.09.18h.08l.09.18h.08l.09.18h.08l.09.18h.08l.09.18h.08l.09.18h.08l.09.18h.08l.09.18h.08l.09.18h.08l.09.18h.08l.09.18h.08l.09.18h.08l.09.18h.08l.09.18h.08l.09.18h.08l.09.18h.08l.09.18h.08l.09.18h.08l.09.18h.08l.09.18h.08l.09.18h.08l.09.18h.08l.09.18h.08l.09.18h.08l.09.18h.08l.09.18h.08l.09.18h.08l.09.18h.08l.09.18h.08l.09.18h.08l.09.18h.08l.09.18h.08l.09.18h.08l.09.18h.08l.09.18h.08l.09.18h.08l.09.18h.08l.09.18h.08l.09.18h.08l.09.18h3.4v13.21h-10.35l9.78,18.12h.08l.09.18h.08l.09.18h.08l.09.18h.08l.09.18h.08l.09.18h.08l.09.18h.08l.09.18h.08l.09.18h.08l.09.18h.08l.09.18h.08l.09.18h.08l.09.18h.08l.09.18h.08l.09.18h.08l.09.18h.08l.09.18h.08l.09.18h.08l.09.18h.08l.09.18h.08l.09.18h.08l.09.18h.08l.09.18h.08l.09.18h.08l.09.18h.08l.09.18h.08l.09.18h.08l.09.18h.08l.09.18h.08l.09.18h.08l.09.18h.08l.09.18h.08l.09.18h.08l.09.18h.08l.09.18h.08l.09.18h.08l.09.18h.08l.09.18h.08l.09.18h.08l.09.18h.08l.09.18h.08l.09.18h.08l.09.18h.08l.09.18h.08l.09.18h.08l.09.18h.08l.09.18h.08l.09.18h.08l.09.18h.08l.09.18h.08l.09.18h.08l.09.18h17.6l5.6-10.55,6.26,11.89h.08l.09.18h.08l.09.18h.08l.09.18h.08l.09.18h.08l.09.18h.08l.09.18h.08l.09.18h.08l.09.18h.08l.09.18h.08l.09.18h.08l.09.18h.08l.09.18h.08l.09.18h.08l.09.18h.08l.09.18h.08l.09.18h.08l.09.18h.08l.09.18h.08l.09.18h.08l.09.18h.08l.09.18h.08l.09.18h.08l.09.18h.08l.09.18h.08l.09.18h.08l.09.18h.08l.09.18h.08l.09.18h.08l.09.18h.08l.09.18h.08l.09.18h.08l.09.18h.08l.09.18h.08l.09.18h.08l.09.18h.08l.09.18h.08l.09.18h.08l.09.18h.08l.09.18h.08l.09.18h.08l.09.18h.08l.09.18h.08l.09.18h.08l.09.18h.08l.09.18h.08l.09.18h.08l.09.18h.08l.09.18h.08l.09.18h.08l.09.18h.08l.09.18h41l3.61-6.82.08.15.04-.08.13.25.04-.08.13.25.04-.08.13.25.04-.08.13.25.04-.08.13.25.04-.08.13.25.04-.08.13.25.04-.08.13.25.04-.08.13.25.04-.08.13.25.04-.08.13.25.04-.08.13.25.04-.08.13.25.04-.08.13.25.04-.08.13.25.04-.08.13.25.04-.08.13.25.04-.08.13.25.04-.08.13.25.04-.08.13.25.04-.08.13.25.04-.08.13.25.04-.08.13.25.04-.08.13.25.04-.08.13.25.04-.08.13.25.04-.08.13.25.04-.08.13.25.04-.08.13.25.04-.08.13.25.04-.08.13.25.04-.08.13.25.04-.08.13.25.04-.08.13.25.04-.08.13.25.04-.08.13.25.04-.08.13.25.04-.08.13.25,2.58-4.86h37.46v-75.51Z"/>
      <g>
        <path class="cls-1" d="m65.82,31.1h-14.71v39.56h14.71V31.1Zm-2.83,36.73h-9.04v-33.89h9.04v33.89Z"/>
        <path class="cls-1" d="m105.14,42.12l4.8-9.09h-32.21l-4.25,9.09h31.65Zm-25.6-6.25h25.7l-1.81,3.42h-25.49l1.6-3.42Z"/>
        <rect class="cls-1" x="105.46" y="81.97" width="27.66" height="5.6"/>
        <path class="cls-1" d="m139.91,61.32h7.61l4.17-8.91h-11.1l10.53-19.82h-27.7l1.96-3.75h-10.34l-7.14,13.57h-5.07l.94,1.79h-6.58l-5.89,10.98h-3.56l4.89,9.26h4.21l1.84-3.45v30.62h-3.94l3.6-6.75h-6.35l3.55-6.74h-6.47l3.24-6.11h-7.13l-2.57,4.84-2.29-4.29h-7.04l2.96,5.56h-22.07l.08-.14h18.7V23.78h-3.88l4.93-9.08H31.04l5.54-10.45h-11.15l-9.47,17.68h-3.04l5.19,9.62h3.93l3.84-7.23h.94v11.18h-8.59v9.62h8.59v6.62l-8.72,16.52h-7.9l5.06,9.62h9.01l7.86-14.83,11,16.36-7.94,14.97h-5.07l.94,1.79h-6.58l-5.89,10.98H7.05l4.89,9.26h12.18l1.84-3.45v32.29h5.21l-.98,1.81h-11.71l5.19,9.62h12.5l6.07-11.43h8.93l6.07,11.43h34.04l4.9-9.62h-32.95l-.98-1.81h4.94v-29.28l4.68,8.68h23.87l3.84-7.23h.95v11.38h-11.25v9.62h11.25v2.39l-8.72,16.53h-34.77l5.06,9.62h35.88l7.72-14.56,5.18,9.73,5.53-10.43-6.08-11.43v-1.85h7.34v23.66h29v-57.93h-.15v-9.08h-10.57l-.98-1.81h4.94v-31.97Zm-105.43,92.55h-9.11l-2.13-3.95h8.65l1.79-3.3h4.66l-3.85,7.26Zm57.08-3.95l-2.01,3.95h-30.59l-3.85-7.26h4.66l1.79,3.3h30.02Zm55.67-94.67l-1.51,3.24h-18.08l-3.81-7.04-3.7,7.04h-13.38l-1.71-3.24h12.7l4.32-8.12v-4.47h3.59v4.47l4.32,8.12h8.67l.23.43.23-.43h8.15Zm-22.33,4.13h-2.03l1-1.91,1.03,1.91Zm6.77-6.97l-3.18-5.99v-4.75h7.13l-2.12,4.04,3.61,6.7h-5.44Zm-22.05-7.17l7.14-13.57h3.95l-1.96,3.75h27.67l-7.56,14.24-2.14-3.97,3.6-6.86h-23.37l-5.36,10h-2.14l-1.9-3.59h2.08Zm-1.89,6.43h5.54l5.36-10h.59v4.75l-3.18,5.99h-12.78l2.44-4.58,2.03,3.84Zm-12.59,9.93h-.8l-1.9-3.59h.55l5.89-10.98h4.02l-7.77,14.58Zm6.65-6.45l2.23,4.21h-4.48l2.25-4.21Zm-.45,38.12l-2.25,4.2,2.24-4.2h.01Zm-22.7-17.88l1.02,1.91-.31.58-1.33-2.5h.62Zm-22.94,5.56h27.97l3.24-6.11h.71l-3.24,6.11h6.48l-3.55,6.74h6.32l-3.6,6.75h7.47l-7.92,14.85h-2.87l.19-.36h2.15l7.52-14.14h-19.57l-1.11,2.1h-.72l8.28-15.59h-27.92l.18-.35Zm33.58,17.27h.07l.75,1.41-.04.07-.79-1.48Zm-2.68,5.24l-.04.08-2.6-4.86h.11l2.53,4.78Zm-7.27-3.73l2.35,4.42-.05.09-2.38-4.51h.08Zm4.95,5.57l.43.8h-.85l.42-.8Zm1.94,3.64l.19.36h-1.91l-.19-.36h1.91Zm-11.36-11.45l.36.68-1.31,2.47h-.58l-.19-.35h.25l1.48-2.79Zm3.88-13.34l-7.06,13.3h-.09l6.84-12.87h-27.67l.23-.42h27.76Zm-34.75-48.65h-7.34v-11.18h7.34v11.18Zm0,27.1l-7.34-11.46v-6.03h7.34v17.48Zm26.16,12.54h-23.33V26.62h23.33v48.53Zm-28.68-3.3l-9.61-14.29-9.28,17.5h-5.59l-2.08-3.95h4.92l9.85-18.66v-10.16h-8.59v-3.95h8.59v-16.85h-5.48l-3.84,7.23h-.53l-2.14-3.96L27.12,7.09h4.74l-5.54,10.45h42.93l-2.15,3.95h-33.32v16.85h7.86v3.95h-7.86v9.69l7.67,11.96v7.91Zm-4.56,25.39l8.77-16.53h3.92l-3.59,6.7h27.69l-5.33,10.04h-.01,0s-2.23,4.2-2.23,4.2l-2.14-3.97,3.6-6.86h-23.37l-5.36,10h-2.14l-1.9-3.59h2.07Zm29.25,10.43l.23-.43h3.21l1.87,3.24h-16.52l-3.81-7.04-3.7,7.04h-13.38l-1.71-3.24h12.7l4.32-8.12v-4.47h3.59v4.47l4.32,8.12h8.67l.23.43Zm-13.96,3.7h-2.03l1-1.91,1.03,1.91Zm6.76-6.97l-3.18-5.99v-4.75h7.13l-2.12,4.04,3.61,6.7h-5.44Zm-23.94-.74h5.54l5.36-10h.59v4.75l-3.18,5.99h-12.78l2.44-4.58,2.03,3.84Zm-12.59,9.93h-8.77l-1.9-3.59h8.53l5.89-10.98h4.02l-7.77,14.58Zm6.65-6.45l2.23,4.21h-4.48l2.25-4.21Zm35.29,35.29H28.8v-28.24h35.56v28.24Zm2.83-29.13h9.16l-5.14-8.91h-3.34l2.1-3.95,1.64,3.03h3.97l1.21-2.27,4.83,9.15.1-.19,1.04,1.98h8.46l-1.56,2.91h-22.47v-1.74Zm48.15,22.3h-7.86v5.39l5.71,10.72-2.33,4.39-5.18-9.73-9.42,17.77h-32.46l-2.08-3.95h31.78l9.85-18.66v-5.92h-11.25v-3.95h11.25v-17.05h-5.48l-3.84,7.23h-20.47l-2.13-3.95h19.93l12.57-23.44h4.74l-8.64,16.21h15.32v3.95h-7.86v17.05h7.86v3.95Zm-5.02-6.79v-11.38h7.34v11.38h-7.34Zm33.51,30.45h-23.33v-52.26h23.33v52.26Zm-.15-61.34v3.95h-12.02l-3.85-7.25h4.66l1.79,3.3h9.43Zm-14.01,6.24h-12v3.64h-12.92l7.74-14.53h11.4l5.78,10.88Zm7.4-13.72h-35.56v-28.24h35.56v28.24Z"/>
        <rect class="cls-1" x="105.46" y="73.58" width="27.66" height="5.51"/>
        <rect class="cls-1" x="105.46" y="65.09" width="27.66" height="5.6"/>
        <path class="cls-1" d="m77.15,94.46h12.2l3.44-6.39h-12.2l-3.44,6.39Zm5.13-3.56h5.76l-.39.72h-5.76l.39-.72Z"/>
        <polygon class="cls-1" points="86.61 87.71 90.05 81.32 84.19 81.32 80.75 87.71 86.61 87.71"/>
        <path class="cls-1" d="m37.23,85.03h-15.91l-4.31,9.09h15.42l4.8-9.09Zm-15.74,6.25l1.62-3.42h9.41l-1.81,3.42h-9.23Z"/>
        <rect class="cls-1" x="32.75" y="125.57" width="27.66" height="5.51"/>
        <rect class="cls-1" x="32.75" y="117.08" width="27.66" height="5.6"/>
        <rect class="cls-1" x="32.75" y="133.96" width="27.66" height="5.6"/>
        <path class="cls-1" d="m139.52,111.5h-14.71v43.29h14.71v-43.29Zm-2.83,40.45h-9.04v-37.62h9.04v37.62Z"/>
      </g>
      <g>
        <g>
          <polygon class="cls-2" points="35.2 22.9 35.2 36.92 43.06 36.92 43.06 43.71 35.2 43.71 35.2 51.57 42.86 63.53 42.86 76.5 31.98 60.32 23.41 76.48 16.11 76.48 12.54 69.69 18.95 69.69 28.23 52.1 28.23 43.71 19.64 43.71 19.64 36.92 28.23 36.92 28.23 22.9 25.02 22.9 21.18 30.14 18.95 30.14 15.29 23.35 16.8 23.35 26.27 5.67 34.22 5.67 28.68 16.12 71.63 16.12 67.95 22.9 35.2 22.9"/>
          <path class="cls-2" d="m45.38,25.2v51.37h26.16V25.2h-26.16Zm19.02,44.05h-11.88v-36.73h11.88v36.73Z"/>
        </g>
        <g>
          <polygon class="cls-2" points="93.48 63.03 90.09 56.6 92.14 56.6 98.04 45.62 105.27 45.62 95.98 63.03 93.48 63.03"/>
          <polygon class="cls-2" points="107.59 34.46 104.29 40.71 75.72 40.71 78.64 34.46 107.59 34.46"/>
          <polygon class="cls-2" points="127.06 46.78 130.81 53.83 149.45 53.83 146.61 59.9 126.79 59.9 123.84 54.46 120.99 59.9 105.9 59.9 102.68 53.83 116.88 53.83 120.63 46.78 120.63 41.24 127.06 41.24 127.06 46.78"/>
          <polygon class="cls-2" points="105.18 43.83 108.75 43.83 115.9 30.26 123.04 30.26 121.08 34.01 148.76 34.01 138.85 52.67 135.09 45.71 137.95 40.26 117.77 40.26 112.41 50.26 108.57 50.26 105.18 43.83"/>
          <path class="cls-2" d="m100.09,60.8v31.07h38.4v-31.07h-38.4Zm31.61,25.36h-24.82v-2.77h24.82v2.77Zm0-8.48h-24.82v-2.68h24.82v2.68Zm0-8.39h-24.82v-2.77h24.82v2.77Z"/>
          <polygon class="cls-2" points="133.31 93.21 135.09 96.52 145.1 96.52 145.1 103.3 130.81 103.3 125.45 93.21 133.31 93.21"/>
        </g>
        <g>
          <polygon class="cls-2" points="80.16 98.32 83.26 104.16 81.62 107.3 76.88 98.32 80.16 98.32"/>
          <polygon class="cls-2" points="81.57 97.28 84.9 97.28 88.18 103.47 86.54 106.57 81.57 97.28"/>
          <path class="cls-2" d="m92.37,93.04l3.6-6.74h-6.33l3.55-6.74h-6.47l3.24-6.11h-3.92l-3.24,6.11h-2.73l1.18-2.23-1.78-3.33h-3.83l2.96,5.56h-23.8l-1.61,3.19h27.87l-8.57,16.13h-1.78l1.73,3.19h2.28l3.1-5.83h16.36l-6.02,11.3h-6.24l1.69,3.19h6.79l9.43-17.68h-7.47Zm-7.34-10.3h2.64l-1.91,3.55h-2.64l1.91-3.55Zm3.46,10.3h-8.98l1.91-3.55h8.98l-1.91,3.55Z"/>
          <polygon class="cls-2" points="91.69 99.65 90.05 102.74 86.9 96.82 90.18 96.82 91.69 99.65"/>
        </g>
        <g>
          <polygon class="cls-2" points="12.8 115.02 9.4 108.59 19.43 108.59 25.32 97.61 32.56 97.61 23.27 115.02 12.8 115.02"/>
          <polygon class="cls-2" points="34.88 86.44 31.57 92.69 19.25 92.69 22.22 86.44 34.88 86.44"/>
          <polygon class="cls-2" points="31.04 148.5 32.82 145.2 40.68 145.2 35.33 155.29 24.52 155.29 20.86 148.5 31.04 148.5"/>
          <polygon class="cls-2" points="54.34 98.77 58.1 105.82 70.4 105.82 73.9 111.89 54.08 111.89 51.13 106.45 48.27 111.89 33.18 111.89 29.97 105.82 44.16 105.82 47.92 98.77 47.92 93.23 54.34 93.23 54.34 98.77"/>
          <polygon class="cls-2" points="32.47 95.82 36.04 95.82 44.81 79.29 51.95 79.29 48.36 86 76.04 86 66.13 104.66 62.38 97.7 65.24 92.25 45.06 92.25 39.7 102.25 35.86 102.25 32.47 95.82"/>
          <path class="cls-2" d="m27.38,112.79v31.07h38.4v-31.07H27.38Zm31.61,25.36h-24.82v-2.77h24.82v2.77Zm0-8.48h-24.82v-2.68h24.82v2.68Zm0-8.39h-24.82v-2.77h24.82v2.77Z"/>
          <polygon class="cls-2" points="60.6 145.2 62.38 148.5 93.86 148.5 90.41 155.29 58.1 155.29 52.74 145.2 60.6 145.2"/>
        </g>
        <polygon class="cls-2" points="108.91 116.02 108.91 130.24 116.76 130.24 116.76 137.03 108.91 137.03 108.91 140.65 114.8 151.72 110.87 159.13 105.69 149.4 97.12 165.56 62.95 165.56 59.38 158.77 92.65 158.77 101.94 141.18 101.94 137.03 90.69 137.03 90.69 130.24 101.94 130.24 101.94 116.02 98.73 116.02 94.89 123.25 72.72 123.25 69.06 116.47 90.51 116.47 103.08 93.03 111.02 93.03 102.39 109.24 116.76 109.24 116.76 116.02 108.91 116.02"/>
        <path class="cls-2" d="m119.09,105.59v55.1h26.16v-55.1h-26.16Zm19.02,47.77h-11.88v-40.45h11.88v40.45Z"/>
      </g>
    </g>
  </g>
</svg>