<?xml version="1.0" encoding="UTF-8"?>
<svg id="_圖層_2" data-name="圖層 2" xmlns="http://www.w3.org/2000/svg" viewBox="0 0 144.63 162.72">
  <defs>
    <style>
      .cls-1 {
        fill: #9ed6e1;
      }

      .cls-1, .cls-2 {
        stroke-width: 0px;
      }

      .cls-2 {
        fill: #fff;
      }
    </style>
  </defs>
  <g id="_圖層_1-2" data-name="圖層 1">
    <g>
      <g>
        <path class="cls-1" d="m58.77,26.85h-14.71v39.56h14.71V26.85Zm-2.83,36.73h-9.04V29.69h9.04v33.89Z"/>
        <path class="cls-1" d="m98.09,37.87l4.8-9.09h-32.21l-4.25,9.09h31.65Zm-25.6-6.25h25.7l-1.81,3.42h-25.49l1.6-3.42Z"/>
        <rect class="cls-1" x="98.41" y="77.72" width="27.66" height="5.6"/>
        <path class="cls-1" d="m132.85,57.07h7.61l4.17-8.91h-11.1l10.53-19.82h-27.7l1.96-3.75h-10.34l-7.14,13.57h-5.07l.94,1.79h-6.58l-5.89,10.98h-3.56l4.89,9.26h4.21l1.84-3.45v30.62h-3.94l3.6-6.75h-6.35l3.55-6.74h-6.47l3.24-6.11h-7.13l-2.57,4.84-2.29-4.29h-7.04l2.96,5.56h-22.07l.08-.14h18.7V19.53h-3.88l4.93-9.08H23.98L29.52,0h-11.15l-9.47,17.68h-3.04l5.19,9.62h3.93l3.84-7.23h.94v11.18h-8.59v9.62h8.59v6.62l-8.72,16.52H3.14l5.06,9.62h9.01l7.86-14.83,11,16.36-7.94,14.97h-5.07l.94,1.79h-6.58l-5.89,10.98H0l4.89,9.26h12.18l1.84-3.45v32.29h5.21l-.98,1.81h-11.71l5.19,9.62h12.5l6.07-11.43h8.93l6.07,11.43h34.04l4.9-9.62h-32.95l-.98-1.81h4.94v-29.28l4.68,8.68h23.87l3.84-7.23h.95v11.38h-11.25v9.62h11.25v2.39l-8.72,16.53h-34.77l5.06,9.62h35.88l7.72-14.56,5.18,9.73,5.53-10.43-6.08-11.43v-1.85h7.34v23.66h29v-57.93h-.15v-9.08h-10.57l-.98-1.81h4.94v-31.97ZM27.42,149.62h-9.11l-2.13-3.95h8.65l1.79-3.3h4.66l-3.85,7.26Zm57.08-3.95l-2.01,3.95h-30.59l-3.85-7.26h4.66l1.79,3.3h30.02Zm55.67-94.67l-1.51,3.24h-18.08l-3.81-7.04-3.7,7.04h-13.38l-1.71-3.24h12.7l4.32-8.12v-4.47h3.59v4.47l4.32,8.12h8.67l.23.43.23-.43h8.15Zm-22.33,4.13h-2.03l1-1.91,1.03,1.91Zm6.77-6.97l-3.18-5.99v-4.75h7.13l-2.12,4.04,3.61,6.7h-5.44Zm-22.05-7.17l7.14-13.57h3.95l-1.96,3.75h27.67l-7.56,14.24-2.14-3.97,3.6-6.86h-23.37l-5.36,10h-2.14l-1.9-3.59h2.08Zm-1.89,6.43h5.54l5.36-10h.59v4.75l-3.18,5.99h-12.78l2.44-4.58,2.03,3.84Zm-12.59,9.93h-.8l-1.9-3.59h.55l5.89-10.98h4.02l-7.77,14.58Zm6.65-6.45l2.23,4.21h-4.48l2.25-4.21Zm-.45,38.12l-2.25,4.2,2.24-4.2h.01Zm-22.7-17.88l1.02,1.91-.31.58-1.33-2.5h.62Zm-22.94,5.56h27.97l3.24-6.11h.71l-3.24,6.11h6.48l-3.55,6.74h6.32l-3.6,6.75h7.47l-7.92,14.85h-2.87l.19-.36h2.15l7.52-14.14h-19.57l-1.11,2.1h-.72l8.28-15.59h-27.92l.18-.35Zm33.58,17.27h.07l.75,1.41-.04.07-.79-1.48Zm-2.68,5.24l-.04.08-2.6-4.86h.11l2.53,4.78Zm-7.27-3.73l2.35,4.42-.05.09-2.38-4.51h.08Zm4.95,5.57l.43.8h-.85l.42-.8Zm1.94,3.64l.19.36h-1.91l-.19-.36h1.91Zm-11.36-11.45l.36.68-1.31,2.47h-.58l-.19-.35h.25l1.48-2.79Zm3.88-13.34l-7.06,13.3h-.09l6.84-12.87h-27.67l.23-.42h27.76ZM36.91,31.25h-7.34v-11.18h7.34v11.18Zm0,27.1l-7.34-11.46v-6.03h7.34v17.48Zm26.16,12.54h-23.33V22.37h23.33v48.53Zm-28.68-3.3l-9.61-14.29-9.28,17.5h-5.59l-2.08-3.95h4.92l9.85-18.66v-10.16h-8.59v-3.95h8.59v-16.85h-5.48l-3.84,7.23h-.53l-2.14-3.96L20.07,2.83h4.74l-5.54,10.45h42.93l-2.15,3.95H26.73v16.85h7.86v3.95h-7.86v9.69l7.67,11.96v7.91Zm-4.56,25.39l8.77-16.53h3.92l-3.59,6.7h27.69l-5.33,10.04h-.01,0s-2.23,4.2-2.23,4.2l-2.14-3.97,3.6-6.86h-23.37l-5.36,10h-2.14l-1.9-3.59h2.07Zm29.25,10.43l.23-.43h3.21l1.87,3.24h-16.52l-3.81-7.04-3.7,7.04h-13.38l-1.71-3.24h12.7l4.32-8.12v-4.47h3.59v4.47l4.32,8.12h8.67l.23.43Zm-13.96,3.7h-2.03l1-1.91,1.03,1.91Zm6.76-6.97l-3.18-5.99v-4.75h7.13l-2.12,4.04,3.61,6.7h-5.44Zm-23.94-.74h5.54l5.36-10h.59v4.75l-3.18,5.99h-12.78l2.44-4.58,2.03,3.84Zm-12.59,9.93H6.6l-1.9-3.59h8.53l5.89-10.98h4.02l-7.77,14.58Zm6.65-6.45l2.23,4.21h-4.48l2.25-4.21Zm35.29,35.29H21.74v-28.24h35.56v28.24Zm2.83-29.13h9.16l-5.14-8.91h-3.34l2.1-3.95,1.64,3.03h3.97l1.21-2.27,4.83,9.15.1-.19,1.04,1.98h8.46l-1.56,2.91h-22.47v-1.74Zm48.15,22.3h-7.86v5.39l5.71,10.72-2.33,4.39-5.18-9.73-9.42,17.77h-32.46l-2.08-3.95h31.78l9.85-18.66v-5.92h-11.25v-3.95h11.25v-17.05h-5.48l-3.84,7.23h-20.47l-2.13-3.95h19.93l12.57-23.44h4.74l-8.64,16.21h15.32v3.95h-7.86v17.05h7.86v3.95Zm-5.02-6.79v-11.38h7.34v11.38h-7.34Zm33.51,30.45h-23.33v-52.26h23.33v52.26Zm-.15-61.34v3.95h-12.02l-3.85-7.25h4.66l1.79,3.3h9.43Zm-14.01,6.24h-12v3.64h-12.92l7.74-14.53h11.4l5.78,10.88Zm7.4-13.72h-35.56v-28.24h35.56v28.24Z"/>
        <rect class="cls-1" x="98.41" y="69.33" width="27.66" height="5.51"/>
        <rect class="cls-1" x="98.41" y="60.84" width="27.66" height="5.6"/>
        <path class="cls-1" d="m70.1,90.2h12.2l3.44-6.39h-12.2l-3.44,6.39Zm5.13-3.56h5.76l-.39.72h-5.76l.39-.72Z"/>
        <polygon class="cls-1" points="79.56 83.46 83 77.07 77.14 77.07 73.7 83.46 79.56 83.46"/>
        <path class="cls-1" d="m30.18,80.77h-15.91l-4.31,9.09h15.42l4.8-9.09Zm-15.74,6.25l1.62-3.42h9.41l-1.81,3.42h-9.23Z"/>
        <rect class="cls-1" x="25.7" y="121.31" width="27.66" height="5.51"/>
        <rect class="cls-1" x="25.7" y="112.83" width="27.66" height="5.6"/>
        <rect class="cls-1" x="25.7" y="129.71" width="27.66" height="5.6"/>
        <path class="cls-1" d="m132.47,107.24h-14.71v43.29h14.71v-43.29Zm-2.83,40.45h-9.04v-37.62h9.04v37.62Z"/>
      </g>
      <g>
        <g>
          <polygon class="cls-2" points="27.26 17.32 27.26 31.34 35.12 31.34 35.12 38.13 27.26 38.13 27.26 45.99 34.93 57.94 34.93 70.92 24.05 54.74 15.48 70.9 8.17 70.9 4.6 64.11 11.01 64.11 20.3 46.52 20.3 38.13 11.7 38.13 11.7 31.34 20.3 31.34 20.3 17.32 17.08 17.32 13.24 24.56 11.01 24.56 7.35 17.77 8.87 17.77 18.33 .09 26.28 .09 20.74 10.54 63.7 10.54 60.01 17.32 27.26 17.32"/>
          <path class="cls-2" d="m37.44,19.62v51.37h26.16V19.62h-26.16Zm19.02,44.05h-11.88V26.94h11.88v36.73Z"/>
        </g>
        <g>
          <polygon class="cls-2" points="85.55 57.45 82.15 51.02 84.21 51.02 90.1 40.04 97.33 40.04 88.05 57.45 85.55 57.45"/>
          <polygon class="cls-2" points="99.65 28.87 96.35 35.12 67.78 35.12 70.7 28.87 99.65 28.87"/>
          <polygon class="cls-2" points="119.12 41.2 122.87 48.25 141.52 48.25 138.68 54.32 118.85 54.32 115.91 48.88 113.05 54.32 97.96 54.32 94.74 48.25 108.94 48.25 112.69 41.2 112.69 35.66 119.12 35.66 119.12 41.2"/>
          <polygon class="cls-2" points="97.24 38.25 100.82 38.25 107.96 24.68 115.1 24.68 113.14 28.43 140.82 28.43 130.91 47.09 127.16 40.13 130.02 34.68 109.83 34.68 104.48 44.68 100.64 44.68 97.24 38.25"/>
          <path class="cls-2" d="m92.15,55.22v31.07h38.4v-31.07h-38.4Zm31.61,25.36h-24.82v-2.77h24.82v2.77Zm0-8.48h-24.82v-2.68h24.82v2.68Zm0-8.39h-24.82v-2.77h24.82v2.77Z"/>
          <polygon class="cls-2" points="125.37 87.63 127.16 90.93 137.16 90.93 137.16 97.72 122.87 97.72 117.51 87.63 125.37 87.63"/>
        </g>
        <g>
          <polygon class="cls-2" points="72.22 92.74 75.32 98.58 73.68 101.72 68.94 92.74 72.22 92.74"/>
          <polygon class="cls-2" points="73.63 91.7 76.96 91.7 80.24 97.89 78.6 100.99 73.63 91.7"/>
          <path class="cls-2" d="m84.43,87.46l3.6-6.74h-6.33l3.55-6.74h-6.47l3.24-6.11h-3.92l-3.24,6.11h-2.73l1.18-2.23-1.78-3.33h-3.83l2.96,5.56h-23.8l-1.61,3.19h27.87l-8.57,16.13h-1.78l1.73,3.19h2.28l3.1-5.83h16.36l-6.02,11.3h-6.24l1.69,3.19h6.79l9.43-17.68h-7.47Zm-7.34-10.3h2.64l-1.91,3.55h-2.64l1.91-3.55Zm3.46,10.3h-8.98l1.91-3.55h8.98l-1.91,3.55Z"/>
          <polygon class="cls-2" points="83.75 94.07 82.11 97.16 78.97 91.24 82.25 91.24 83.75 94.07"/>
        </g>
        <g>
          <polygon class="cls-2" points="4.86 109.44 1.46 103.01 11.49 103.01 17.39 92.02 24.62 92.02 15.33 109.44 4.86 109.44"/>
          <polygon class="cls-2" points="26.94 80.86 23.64 87.11 11.31 87.11 14.28 80.86 26.94 80.86"/>
          <polygon class="cls-2" points="23.1 142.92 24.89 139.62 32.75 139.62 27.39 149.71 16.58 149.71 12.92 142.92 23.1 142.92"/>
          <polygon class="cls-2" points="46.41 93.19 50.16 100.24 62.46 100.24 65.96 106.31 46.14 106.31 43.19 100.87 40.34 106.31 25.24 106.31 22.03 100.24 36.23 100.24 39.98 93.19 39.98 87.65 46.41 87.65 46.41 93.19"/>
          <polygon class="cls-2" points="24.53 90.24 28.1 90.24 36.87 73.71 44.01 73.71 40.42 80.42 68.11 80.42 58.19 99.08 54.44 92.11 57.3 86.67 37.12 86.67 31.76 96.67 27.92 96.67 24.53 90.24"/>
          <path class="cls-2" d="m19.44,107.21v31.07h38.4v-31.07H19.44Zm31.61,25.36h-24.82v-2.77h24.82v2.77Zm0-8.48h-24.82v-2.68h24.82v2.68Zm0-8.39h-24.82v-2.77h24.82v2.77Z"/>
          <polygon class="cls-2" points="52.66 139.62 54.44 142.92 85.93 142.92 82.47 149.71 50.16 149.71 44.8 139.62 52.66 139.62"/>
        </g>
        <polygon class="cls-2" points="100.97 110.44 100.97 124.66 108.83 124.66 108.83 131.45 100.97 131.45 100.97 135.07 106.86 146.14 102.93 153.55 97.75 143.82 89.18 159.98 55.01 159.98 51.44 153.19 84.72 153.19 94 135.6 94 131.45 82.75 131.45 82.75 124.66 94 124.66 94 110.44 90.79 110.44 86.95 117.67 64.78 117.67 61.12 110.89 82.57 110.89 95.14 87.45 103.09 87.45 94.45 103.65 108.83 103.65 108.83 110.44 100.97 110.44"/>
        <path class="cls-2" d="m111.15,100.01v55.1h26.16v-55.1h-26.16Zm19.02,47.77h-11.88v-40.45h11.88v40.45Z"/>
      </g>
    </g>
  </g>
</svg>