<?xml version="1.0" encoding="UTF-8"?>
<svg id="_圖層_2" data-name="圖層 2" xmlns="http://www.w3.org/2000/svg" viewBox="0 0 775.5 207.1">
  <defs>
    <style>
      .cls-1 {
        fill: #69bccc;
        stroke-width: 0px;
      }
    </style>
  </defs>
  <g id="_圖層_1-2" data-name="圖層 1">
    <g>
      <polygon class="cls-1" points="0 0 0 6.87 6.87 0 0 0"/>
      <polygon class="cls-1" points="36.14 0 0 36.14 0 43.01 43.01 0 36.14 0"/>
      <polygon class="cls-1" points="72.28 0 0 72.28 0 79.15 79.15 0 72.28 0"/>
      <polygon class="cls-1" points="108.41 0 0 108.41 0 115.28 115.28 0 108.41 0"/>
      <polygon class="cls-1" points="144.55 0 0 144.55 0 151.42 151.42 0 144.55 0"/>
      <polygon class="cls-1" points="180.69 0 0 180.69 0 187.56 187.56 0 180.69 0"/>
      <polygon class="cls-1" points="216.83 0 9.73 207.1 16.6 207.1 223.7 0 216.83 0"/>
      <polygon class="cls-1" points="252.97 0 45.87 207.1 52.74 207.1 259.84 0 252.97 0"/>
      <polygon class="cls-1" points="289.11 0 82.01 207.1 88.88 207.1 295.98 0 289.11 0"/>
      <polygon class="cls-1" points="325.24 0 118.14 207.1 125.01 207.1 332.11 0 325.24 0"/>
      <polygon class="cls-1" points="361.38 0 154.28 207.1 161.15 207.1 368.25 0 361.38 0"/>
      <polygon class="cls-1" points="397.52 0 190.42 207.1 197.29 207.1 404.39 0 397.52 0"/>
      <polygon class="cls-1" points="433.66 0 226.56 207.1 233.43 207.1 440.53 0 433.66 0"/>
      <polygon class="cls-1" points="469.8 0 262.7 207.1 269.57 207.1 476.67 0 469.8 0"/>
      <polygon class="cls-1" points="505.94 0 298.84 207.1 305.71 207.1 512.81 0 505.94 0"/>
      <polygon class="cls-1" points="542.07 0 334.97 207.1 341.84 207.1 548.94 0 542.07 0"/>
      <polygon class="cls-1" points="578.21 0 371.11 207.1 377.98 207.1 585.08 0 578.21 0"/>
      <polygon class="cls-1" points="614.35 0 407.25 207.1 414.12 207.1 621.22 0 614.35 0"/>
      <polygon class="cls-1" points="650.49 0 443.39 207.1 450.26 207.1 657.36 0 650.49 0"/>
      <polygon class="cls-1" points="686.63 0 479.53 207.1 486.4 207.1 693.5 0 686.63 0"/>
      <polygon class="cls-1" points="722.77 0 515.67 207.1 522.54 207.1 729.64 0 722.77 0"/>
      <polygon class="cls-1" points="758.9 0 551.8 207.1 558.67 207.1 765.77 0 758.9 0"/>
      <polygon class="cls-1" points="775.5 19.54 587.94 207.1 594.81 207.1 775.5 26.41 775.5 19.54"/>
      <polygon class="cls-1" points="775.5 55.68 624.08 207.1 630.95 207.1 775.5 62.55 775.5 55.68"/>
      <polygon class="cls-1" points="775.5 91.82 660.22 207.1 667.09 207.1 775.5 98.69 775.5 91.82"/>
      <polygon class="cls-1" points="775.5 127.95 696.36 207.1 703.23 207.1 775.5 134.82 775.5 127.95"/>
      <polygon class="cls-1" points="775.5 164.09 732.5 207.1 739.37 207.1 775.5 170.96 775.5 164.09"/>
      <polygon class="cls-1" points="775.5 200.23 768.63 207.1 775.5 207.1 775.5 200.23"/>
    </g>
  </g>
</svg>