<?xml version="1.0" encoding="UTF-8"?>
<svg id="_圖層_2" data-name="圖層 2" xmlns="http://www.w3.org/2000/svg" viewBox="0 0 455.94 455.94">
  <defs>
    <style>
      .cls-1 {
        fill: #69bccc;
        stroke-width: 0px;
      }
    </style>
  </defs>
  <g id="_圖層_1-2" data-name="圖層 1">
    <g>
      <g>
        <polygon class="cls-1" points="227.97 416.86 205.41 455.94 250.53 455.94 227.97 416.86"/>
        <polygon class="cls-1" points="227.97 39.08 250.53 0 205.41 0 227.97 39.08"/>
        <polygon class="cls-1" points="39.08 227.97 0 205.41 0 250.53 39.08 227.97"/>
        <polygon class="cls-1" points="416.86 227.97 455.94 250.53 455.94 205.41 416.86 227.97"/>
      </g>
      <g>
        <polygon class="cls-1" points="326.65 326.65 335.28 358.85 358.85 335.28 326.65 326.65"/>
        <polygon class="cls-1" points="129.29 129.29 120.66 97.09 97.09 120.66 129.29 129.29"/>
        <polygon class="cls-1" points="129.29 326.65 97.09 335.28 120.66 358.85 129.29 326.65"/>
        <polygon class="cls-1" points="326.65 129.29 358.85 120.66 335.28 97.09 326.65 129.29"/>
      </g>
      <path class="cls-1" d="m17.71,184.59c.72-3.54,1.54-7.04,2.43-10.52l19.82,5.13c-.81,3.13-1.55,6.3-2.2,9.49l-20.05-4.11Zm7.07-26.01c1.16-3.41,2.41-6.79,3.74-10.12l19.01,7.58c-1.2,3.01-2.32,6.06-3.38,9.15l-19.37-6.61Zm10.29-24.91c1.58-3.22,3.24-6.4,4.97-9.53l17.91,9.91c-1.57,2.84-3.07,5.72-4.51,8.65l-18.37-9.02Zm13.33-23.38c1.97-3,4.02-5.95,6.13-8.85l16.53,12.07c-1.91,2.62-3.77,5.3-5.55,8.02l-17.11-11.24Zm16.16-21.52c2.33-2.74,4.73-5.42,7.2-8.03l14.88,14.05c-2.23,2.36-4.39,4.78-6.5,7.25l-15.58-13.27Zm18.72-19.36c2.65-2.42,5.38-4.78,8.15-7.07l13.02,15.8c-2.51,2.07-4.97,4.2-7.36,6.39l-13.81-15.11Zm21-16.88c2.93-2.07,5.93-4.07,8.97-6l10.96,17.29c-2.75,1.74-5.45,3.55-8.11,5.43l-11.81-16.72Zm22.95-14.13c3.17-1.69,6.39-3.3,9.66-4.84l8.7,18.53c-2.95,1.38-5.86,2.84-8.73,4.37l-9.63-18.06Zm24.55-11.16c3.36-1.28,6.76-2.47,10.19-3.58l6.3,19.48c-3.1,1-6.17,2.08-9.21,3.24l-7.28-19.13Zm25.78-7.98c3.49-.84,7.01-1.6,10.55-2.26l3.79,20.12c-3.21.6-6.39,1.29-9.55,2.05l-4.79-19.9Zm240.62,169.44c-.65-3.19-1.39-6.36-2.2-9.49l19.82-5.13c.89,3.47,1.71,6.98,2.43,10.52l-20.05,4.11Zm-6.39-23.51c-1.05-3.09-2.18-6.14-3.38-9.15l19.01-7.58c1.33,3.33,2.57,6.7,3.74,10.12l-19.37,6.61Zm-9.29-22.5c-1.44-2.92-2.94-5.81-4.51-8.65l17.91-9.91c1.73,3.13,3.39,6.31,4.97,9.53l-18.37,9.02Zm-12.07-21.16c-1.78-2.72-3.64-5.39-5.55-8.02l16.53-12.07c2.11,2.89,4.16,5.84,6.13,8.85l-17.11,11.24Zm-14.63-19.49c-2.11-2.47-4.27-4.89-6.5-7.25l14.88-14.05c2.47,2.61,4.87,5.29,7.2,8.03l-15.58,13.27Zm-16.95-17.52c-2.39-2.19-4.85-4.32-7.36-6.39l13.02-15.8c2.77,2.29,5.5,4.65,8.15,7.07l-13.81,15.11Zm-19-15.28c-2.65-1.87-5.36-3.68-8.11-5.43l10.96-17.29c3.04,1.93,6.03,3.93,8.97,6l-11.81,16.72Zm-20.76-12.79c-2.87-1.53-5.78-2.98-8.73-4.37l8.7-18.53c3.27,1.53,6.49,3.15,9.66,4.84l-9.63,18.06Zm-22.2-10.09c-3.04-1.15-6.11-2.23-9.21-3.24l6.3-19.48c3.43,1.11,6.83,2.3,10.19,3.58l-7.28,19.13Zm-23.29-7.21c-3.16-.76-6.34-1.44-9.55-2.05l3.79-20.12c3.54.66,7.06,1.42,10.55,2.26l-4.79,19.9Zm164.64,232.2c-.72,3.54-1.54,7.04-2.43,10.52l-19.82-5.13c.81-3.13,1.55-6.3,2.2-9.49l20.05,4.11Zm-7.07,26.01c-1.16,3.41-2.41,6.79-3.74,10.12l-19.01-7.58c1.2-3.01,2.32-6.06,3.38-9.15l19.37,6.61Zm-10.29,24.91c-1.58,3.22-3.24,6.4-4.97,9.53l-17.91-9.91c1.57-2.84,3.07-5.72,4.51-8.65l18.37,9.02Zm-13.33,23.38c-1.97,3-4.02,5.95-6.13,8.85l-16.53-12.07c1.91-2.62,3.77-5.3,5.55-8.02l17.11,11.24Zm-16.16,21.52c-2.33,2.74-4.73,5.42-7.2,8.03l-14.88-14.05c2.23-2.36,4.39-4.78,6.5-7.25l15.58,13.27Zm-18.72,19.36c-2.65,2.42-5.38,4.78-8.15,7.07l-13.02-15.8c2.51-2.07,4.97-4.2,7.36-6.39l13.81,15.11Zm-21,16.88c-2.93,2.07-5.93,4.07-8.97,6l-10.96-17.29c2.75-1.74,5.45-3.55,8.11-5.42l11.81,16.72Zm-22.95,14.13c-3.17,1.69-6.39,3.3-9.66,4.84l-8.7-18.53c2.95-1.38,5.86-2.84,8.73-4.37l9.63,18.06Zm-24.55,11.16c-3.36,1.28-6.76,2.47-10.19,3.58l-6.3-19.48c3.1-1.01,6.17-2.08,9.21-3.24l7.28,19.13Zm-25.78,7.98c-3.49.84-7.01,1.6-10.55,2.26l-3.79-20.12c3.21-.6,6.39-1.29,9.55-2.05l4.79,19.9ZM37.76,267.24c.65,3.19,1.39,6.36,2.2,9.49l-19.82,5.13c-.89-3.47-1.71-6.98-2.43-10.52l20.05-4.11Zm6.39,23.51c1.05,3.09,2.18,6.14,3.38,9.15l-19.01,7.58c-1.33-3.33-2.57-6.7-3.74-10.12l19.37-6.61Zm9.29,22.5c1.44,2.92,2.94,5.81,4.51,8.65l-17.91,9.91c-1.73-3.13-3.39-6.31-4.97-9.53l18.37-9.02Zm12.07,21.16c1.78,2.72,3.64,5.39,5.55,8.02l-16.53,12.07c-2.11-2.89-4.16-5.84-6.13-8.85l17.11-11.24Zm14.63,19.49c2.11,2.47,4.27,4.89,6.5,7.25l-14.88,14.05c-2.47-2.61-4.87-5.29-7.2-8.03l15.58-13.27Zm16.95,17.52c2.39,2.19,4.85,4.32,7.36,6.39l-13.02,15.8c-2.77-2.29-5.5-4.65-8.15-7.07l13.81-15.11Zm19,15.28c2.65,1.87,5.36,3.68,8.11,5.42l-10.96,17.29c-3.04-1.93-6.03-3.93-8.97-6l11.81-16.72Zm20.76,12.79c2.87,1.53,5.78,2.98,8.73,4.37l-8.7,18.53c-3.27-1.53-6.49-3.15-9.66-4.84l9.63-18.06Zm22.21,10.09c3.04,1.15,6.11,2.23,9.21,3.24l-6.3,19.48c-3.43-1.11-6.83-2.3-10.19-3.58l7.28-19.13Zm23.29,7.21c3.16.76,6.34,1.44,9.55,2.05l-3.79,20.12c-3.54-.66-7.06-1.42-10.55-2.26l4.79-19.9Z"/>
    </g>
  </g>
</svg>